<?xml version="1.0" encoding="UTF-8" standalone="no"?>
<svg
   xmlns:dc="http://purl.org/dc/elements/1.1/"
   xmlns:cc="http://creativecommons.org/ns#"
   xmlns:rdf="http://www.w3.org/1999/02/22-rdf-syntax-ns#"
   xmlns:svg="http://www.w3.org/2000/svg"
   xmlns="http://www.w3.org/2000/svg"
   xmlns:sodipodi="http://sodipodi.sourceforge.net/DTD/sodipodi-0.dtd"
   xmlns:inkscape="http://www.inkscape.org/namespaces/inkscape"
   width="100"
   height="155"
   viewBox="0 0 100 155"
   version="1.1"
   id="svg13"
   sodipodi:docname="SPE.svg"
   inkscape:version="0.92.4 (5da689c313, 2019-01-14)">
  <title
     id="title840">Sony Pictures logo</title>
  <metadata
     id="metadata19">
    <rdf:RDF>
      <cc:Work
         rdf:about="">
        <dc:format>image/svg+xml</dc:format>
        <dc:type
           rdf:resource="http://purl.org/dc/dcmitype/StillImage" />
        <dc:title>Sony Pictures logo</dc:title>
        <dc:date>16 sep 2020 </dc:date>
        <cc:license
           rdf:resource="http://scripts.sil.org/OFL" />
        <dc:creator>
          <cc:Agent>
            <dc:title />
          </cc:Agent>
        </dc:creator>
      </cc:Work>
      <cc:License
         rdf:about="http://scripts.sil.org/OFL">
        <cc:permits
           rdf:resource="http://scripts.sil.org/pub/OFL/Reproduction" />
        <cc:permits
           rdf:resource="http://scripts.sil.org/pub/OFL/Distribution" />
        <cc:permits
           rdf:resource="http://scripts.sil.org/pub/OFL/Embedding" />
        <cc:permits
           rdf:resource="http://scripts.sil.org/pub/OFL/DerivativeWorks" />
        <cc:requires
           rdf:resource="http://scripts.sil.org/pub/OFL/Notice" />
        <cc:requires
           rdf:resource="http://scripts.sil.org/pub/OFL/Attribution" />
        <cc:requires
           rdf:resource="http://scripts.sil.org/pub/OFL/ShareAlike" />
        <cc:requires
           rdf:resource="http://scripts.sil.org/pub/OFL/DerivativeRenaming" />
        <cc:requires
           rdf:resource="http://scripts.sil.org/pub/OFL/BundlingWhenSelling" />
      </cc:License>
    </rdf:RDF>
  </metadata>
  <defs
     id="defs17">
    <pattern
       y="0"
       x="0"
       height="6"
       width="6"
       patternUnits="userSpaceOnUse"
       id="EMFhbasepattern" />
  </defs>
  <sodipodi:namedview
     pagecolor="#ffffff"
     bordercolor="#666666"
     borderopacity="1"
     objecttolerance="10"
     gridtolerance="10"
     guidetolerance="10"
     inkscape:pageopacity="0"
     inkscape:pageshadow="2"
     inkscape:window-width="1366"
     inkscape:window-height="705"
     id="namedview15"
     showgrid="false"
     inkscape:showpageshadow="false"
     inkscape:zoom="2.1443463"
     inkscape:cx="130.49283"
     inkscape:cy="102.89395"
     inkscape:window-x="-8"
     inkscape:window-y="-8"
     inkscape:window-maximized="1"
     inkscape:current-layer="svg13" />
  <style
     id="style3">
    .s{fill-rule:evenodd;clip-rule:evenodd;fill:#2b5f8c}
  </style>
  <g
     transform="matrix(0.73094638,0,0,0.73094638,200.8054,-57.05926)"
     id="g90"
     style="fill:#000000">
    <g
       id="g32"
       style="fill:#000000"
       transform="translate(-272.9989,49.20721)">
      <g
         id="g28"
         style="fill:#000000">
        <path
           style="fill:#000000"
           d="m 133.38357,30.047573 -5.88086,2.830078 c 0,0 -0.22969,3.66086 -0.42969,7.13086 -1.75,24.299999 -1.99945,34.649921 -1.93945,42.169921 0.08,19.349998 2.24023,41.728518 2.24023,41.728518 l 0.31055,3.80078 5.69922,-2.56055 c 0,0 0.08,-91.239607 0,-95.099607 z m -13.2793,6.390625 -5.58008,2.34961 c 0,0 -0.2314,2.850546 -0.4414,6.310546 -2,24.4 -2.17875,36.85 -2.21875,42 -0.15,18.089996 2.40039,43.068356 2.40039,43.068356 l 0.38867,3.58008 6.58985,-3 0.33984,-5.80859 c 1,-11.94 1.00062,-11.89 1.39062,-40.000002 0.25,-16.92 -2.43023,-42.851406 -2.49023,-43.691406 -0.12,-1.73 -0.37891,-4.808594 -0.37891,-4.808594 z m -13.30078,6.228516 -5.65039,2.591797 c 0,0 -0.21969,2.809765 -0.42969,6.259765 -1.999996,24.41 -2.180469,36.858828 -2.230469,42.048828 -0.14,18.069996 2.410159,43.070306 2.410159,43.070306 l 0.37109,3.40039 6.60938,-3 0.33008,-5.63085 c 0,0 1.00039,-11.9186 1.40039,-40.058596 0.25,-16.92 -2.44,-42.85164 -2.5,-43.68164 -0.12,-1.73 -0.31055,-5 -0.31055,-5 z m -13.130862,6.15039 -5.818359,2.470703 c -0.03155,1.982749 -0.171739,3.96228 -0.419922,5.929688 -1.436717,14.167844 -2.144681,28.40014 -2.121093,42.640625 -0.22,17.86 2.509765,43 2.509765,43 l 0.330078,3.40039 6,-2.90039 0.460938,-5.47071 c 0,0 1.478595,-12.99937 1.808593,-41.359368 0.16,-14.61 -2.249609,-40.239688 -2.349609,-42.929688 -0.08,-1.63 -0.40039,-4.78125 -0.400391,-4.78125 z m -13.898437,6.410157 -4.320313,1.75 -0.589843,5.90039 c -2.44,23.34 -2.670235,36.900781 -2.740235,42.300779 -0.21,17.86 3,43.23828 3,43.23828 l 0.339844,3.76172 5.449219,-2.5918 0.320312,-5.61914 c 0,0 1.299454,-13.23984 1.689453,-41.58984 0.22,-14.999999 -2.539843,-40.170233 -2.839843,-43.490233 -0.14,-1.64 -0.308594,-3.660156 -0.308594,-3.660156 z m -13.679687,6.169921 -2.871094,1.240235 c 0,0 0.0098,0.560859 0.0098,2.880859 -1.58,12.22 -4.389218,26.94 -4.699218,45.000004 -0.35,19.76999 3.789062,43.66991 3.789062,43.66991 l 0.400391,3.76954 3.269531,-1.57032 0.53125,-5.94922 c 2.46,-21.99999 2.998516,-24.45109 3.228516,-42.62109 0.22,-15.169996 -2.39836,-31.469136 -3.56836,-43.119136 -0.102655,-1.097079 -0.132667,-2.199744 -0.08984,-3.300782 z m -13.13086,6.160157 -2.90039,1.320312 c 0,0 0.390234,15.959766 -0.509766,22.759766 -2.92,16.170003 -3.999375,21.810233 -3.609375,29.490233 0.372534,6.86799 1.247926,13.69943 2.619141,20.43945 0.639999,4.32 0.849609,7 0.849609,7 l 0.121094,15.58985 2.810547,-1.38868 c 0,0 -0.0019,-13.0007 0.07812,-13.7207 0.08,-0.72 0.08024,-1.46984 0.240235,-3.33984 0.49,-5.72 2.31,-17.36938 3,-26.85938 0.82,-12.22 -1.819609,-23.80148 -2.349609,-29.52148 -0.280001,-3.07 -0.47961,-7.179531 -0.34961,-21.769531 z m -13.019531,6.169922 -2.75,1.169921 c 0.09,18.54 0.09031,23.849688 0.07031,26.179688 -2.68,13.9 -3.191093,14.63117 -3.621093,21.45117 -0.33,5.36 0.560468,9.19859 1.480468,13.80859 0.81,4 1.779297,8.31055 1.779297,8.31055 l -0.08984,25.45117 3,-1.45117 0.08008,-25.25977 c 0,0 2.510625,-13.5989 2.890625,-21.3789 0.45,-9.35 -2.839844,-19.35039 -2.839844,-21.65039 z m -12.890625,6.050781 -2.660156,1.11914 V 122.0671 c 0,1 -1.920391,3.61071 -2.400391,5.22071 -0.48,1.61 -1.190313,3.80054 1.679687,5.81054 0.920001,0.65 0.640704,2.72961 0.720704,4.09961 0.08,1.37 0,38.58008 0,38.58008 l 2.730468,-1.16016 v -41.28125 c 0,-1.24 3.999141,-4.77859 2.619141,-8.55859 -0.46,-1.25 -2.169453,-2.74 -2.189453,-3 -0.23,-1.94 -0.5,-41.999998 -0.5,-41.999998 z m -12.550781,5.789062 -2.478516,1.060547 v 94.810539 l 2.5,-1.04101 z M 2.9128631,90.967495 0.3933318,92.018276 0.41286306,186.83663 2.9226287,185.76827 Z M 47.283957,196.57687 c -7.38,0 -16.25961,3.60992 -16.09961,11.91992 0.16,8.31 8.81961,11.54101 16.09961,11.54101 7.28,0 15.21914,-3.23101 15.36914,-11.54101 0.15,-8.31 -7.84914,-11.91992 -15.36914,-11.91992 z m -35.466797,0.16406 c -2.7312897,5.3e-4 -5.6410938,0.41891 -8.1835938,1.56641 -5.47,2.46 -3.92968752,7.29929 -2.92968752,8.52929 1.19000002,1.6 3.28000002,2.38 6.00000002,3 3.8199993,0.87 8.9594533,1.18133 12.1894533,1.61133 3.01,0.39 2.769609,3.32024 1.099609,4.24023 -2.81,1.53001 -9.858984,1.43883 -13.7089842,-0.70117 -3.36,-1.85 -3,-3.61008 -3,-4.08007 h -3 v 8 H 3.614035 v -0.68946 c -0.08,-1.15 1.5292968,-0.26992 2.5292968,0.0801 5.5000002,1.9 13.2496872,2.23984 17.6796872,-0.66016 4.93,-3.23 3.331172,-9.28937 -2.298828,-11.10937 -4.27,-1.39 -11.170156,-1.16047 -14.660156,-2.23047 -2.7100002,-0.83 -1.9003905,-4.77094 6.099609,-4.46094 7.84,0.3 9.75,3.92047 9.75,5.23047 h 2.699219 v -7.29883 h -2.898438 c 0.3,1.38 -0.480781,1.55 -1.050781,1 -1.0375,-0.86875 -5.094336,-2.02822 -9.646484,-2.02734 z m 53.996094,0.95703 v 2.81055 h 2.660156 c 1.47,0.05 1.470703,0.75961 1.470703,1.59961 v 12.84961 c -0.04,0.63 -0.200313,1.22078 -1.320313,1.30078 h -2.759765 v 2.59961 h 12.449219 v -2.71094 h -2.830079 c -0.63,0.03 -1.349609,0.11094 -1.349609,-1.28906 l 0.0098,-10.58008 16.589843,14.58008 h 3.939453 v -17.11133 c 0,-0.63 0.32,-1.31836 1,-1.31836 h 2.890626 v -2.73047 H 86.514425 v 2.69922 h 2.658203 c 0.620002,0.08 1.361329,0.0798 1.361329,1.58984 v 8.8711 L 76.323019,197.69796 Z m 35.490236,0.0195 v 2.76953 h 2.33985 c 0.93743,-0.0382 1.83542,0.37953 2.41015,1.1211 0.08,0.12 8.38086,9.24023 8.38086,9.24023 v 4.78906 c 0,0.32 -0.0604,0.5 -0.65039,0.5 h -3.43945 v 2.71094 h 14.18945 v -2.71094 h -3.09961 c -0.6,0 -0.60156,0.01 -0.60156,-0.5 v -4.75 c 0,0 7.48984,-8.8607 8.08984,-9.4707 0.40166,-0.5254 1.00232,-0.86177 1.66016,-0.92969 h 2.74023 v -2.76953 h -11.72851 v 2.76953 h 1.77929 c 0.59,0 0.68041,0.8212 0.40039,1.20117 l -4.88085,5.75 c 0,0 -4.26913,-5.12093 -4.86915,-5.71093 -0.59999,-0.59 -0.15984,-1.24024 0.16016,-1.24024 h 1.46875 v -2.76953 z m -54.160158,2.00977 c 5.08,0 8.929687,3.12109 8.929687,8.62109 -0.02,5.46 -4.009687,8.46938 -8.929687,8.60938 -4.92,0.14 -8.909922,-3.10938 -8.919922,-8.60938 -0.01,-5.5 3.839922,-8.62109 8.919922,-8.62109 z m -11.939454,26.12109 c -3.859999,-0.07 -8.560468,2.02938 -8.480468,7.35938 0.08,5.33 4.989687,7 8.929687,7 4.17,0 6.470235,-2.66993 6.740235,-4.66993 l -1.509766,0.0391 c -0.56,2.47 -3.330078,3 -5.080078,3 -2.956679,-0.0329 -5.334891,-2.44158 -5.330078,-5.39844 0,-2.89 1.529843,-5.23156 4.589844,-5.60156 2.899999,-0.37 5.62,1.12093 5.75,3.46093 h 1.390624 v -4.46093 h -1.509765 c 0.16,0.98 -0.26961,0.96109 -0.599609,0.62109 -1.464977,-0.9143 -3.164077,-1.38318 -4.890626,-1.34961 z m 89.552742,0.31836 c -0.11983,5.9e-4 -0.23964,0.003 -0.35938,0.008 -1.38626,0.0531 -2.74776,0.38389 -4.0039,0.97266 -2.00848,0.86504 -2.74554,3.33623 -1.53907,5.16016 0.79069,0.98146 1.92286,1.62811 3.16992,1.81054 2.11127,0.44123 4.24357,0.77499 6.38868,1 1.96,0.3 1.58006,2.04063 0.58008,2.64063 -2.10001,1.32 -4.60946,1.13828 -7.18946,-0.51172 -1.73,-1.11 -1.56056,-2.17899 -1.56054,-2.45899 h -1.5586 v 4.84961 h 1.75 v -0.41992 c -0.04,-0.74 0.80008,-0.2 1.33008,0 2.88,1.16 6.93977,1.36938 9.25976,-0.39062 2.59001,-1.96 1.79883,-5.60875 -1.20117,-6.71875 -2.25,-0.83 -5.90945,-0.53961 -7.68945,-1.34961 -1.59,-0.72 -0.96031,-3.01039 3.17969,-2.90039 4.14,0.11 5.14062,2.57914 5.14062,3.36914 h 1.41016 v -4.51953 h -1.51953 c 0.15,0.93 -0.17133,0.92898 -0.61133,0.70898 -1.52795,-0.82697 -3.23919,-1.2568 -4.97656,-1.25 z m -106.943366,0.35159 v 1.68946 h 1.470703 c 0.57,0 0.71875,0.32054 0.71875,0.81054 v 8.11914 c 0,0.5 -0.14875,0.72071 -0.71875,0.72071 h -1.470703 v 1.68945 h 7.630859 v -1.67969 h -1.490235 c -0.579999,0 -0.701171,-0.23047 -0.701171,-0.73047 l 0.05078,-8.11914 c 0,-0.49 0.119219,-0.82031 0.699219,-0.82031 h 1.490234 v -1.67969 z m 44,0.01 v 1.68945 h 1.480468 c 0.57,0 0.708985,0.32055 0.708985,0.81055 v 6.37891 c 0,4.00999 3.270859,4.73046 6.380859,4.73046 3.17,0 6.200156,-0.74929 6.160156,-4.52929 v -6 c -0.01,-0.99 0.309688,-1.36133 0.679688,-1.36133 h 1.480468 v -1.67969 h -6.509765 v 1.69141 h 1.46875 c 0.58,0 0.720703,0.31859 0.720703,0.80859 v 6.57031 c 0,1.41 -0.35,3 -4,3 -3.26,0 -3.089844,-2.56 -3.089844,-3 v -6.60937 c 0,-0.5 0.140703,-0.82031 0.720703,-0.82031 h 1.478516 v -1.67969 z m -17.298829,0.0293 v 4.93945 l 1.589844,0.0215 c 0,-3.39 0.169766,-3.17101 1.509766,-3.29101 h 3 v 9 c 0,0.5 -0.150703,0.82031 -0.720703,0.82031 h -1.480469 v 1.58984 h 7.691406 v -1.60937 H 54.6238 c -0.57,0 -0.701172,-0.32031 -0.701172,-0.82031 v -9 h 3 c 1.2,0.14 1.511719,-0.20094 1.511719,3.28906 h 1.548828 v -4.93945 z m -44.47070257,0.01 v 1.7207 H 1.4441131 c 0.57,0 0.71875,0.26024 0.71875,0.74024 v 8.11914 c 0,0.49 -0.1289844,0.7207 -0.7089844,0.7207 h -1.48046877 v 1.68946 H 7.6941131 v -1.68946 H 6.1843474 c -0.5699999,0 -0.7109374,-0.22095 -0.7109374,-0.71093 v -3.19922 h 4.65039 c 4.22,0 5.919922,-1.0908 5.919922,-3.80078 0,-2.71 -1.22,-3.58985 -5,-3.58985 z m 80.45898457,0.0312 v 1.60938 h 1.40039 c 0.57,0 0.710938,0.35961 0.710938,0.84961 v 8.10937 c 0,0.5 -0.121407,0.73047 -0.691407,0.73047 h -1.488281 v 1.74023 H 88.1238 v -1.70898 h -1.480468 c -0.57,0 -0.708985,-0.22094 -0.708985,-0.71094 v -3.19922 h 3.789063 c 1.48,0 2.269531,0.38868 2.269531,1.38868 v 1.42968 c 0,2.59 1.651094,3.13086 3.371094,3.13086 2.04,0 2.599609,-0.67 2.599609,-3 v -1 h -1.380859 v 0.80078 c 0.03,0.71 0.07164,1.45899 -0.56836,1.45899 -0.64,0 -0.701171,-0.55016 -0.701171,-0.91016 v -1.87891 c -0.07,-1.58 -0.979297,-1.84992 -2.279297,-2.16992 1.5,-0.28 3.24,-0.94148 3.25,-3.02148 0,-2.45 -1.23,-3.64844 -5,-3.64844 z m 19.160159,0 v 1.68945 h 1.480474 c 0.57,0 0.71093,0.33032 0.71093,0.82032 v 8.10937 c 0,0.49 -0.14093,0.73047 -0.71093,0.73047 h -1.480474 v 1.68945 H 115.1531 v -5.01953 h -1.5 c 0,2.53 -0.23031,3.15907 -1.57031,3.28907 h -6.91016 v -4.09961 h 3.21094 c 0.43,0 0.69922,0.16007 0.69922,0.83007 v 1.40039 h 1.43164 v -6.10937 h -1.43164 v 1.33984 c 0,0.69 -0.26922,0.83985 -0.69922,0.83985 h -3.21094 v -3.91993 h 6.91016 c 1.34,0.13001 1.57031,0.82985 1.57031,3.33985 h 1.5 v -4.92969 z M 5.47341,228.21791 h 4.4199222 c 1.4699998,0 2.4707028,0.46 2.4707028,2 0,1.54 -1.001405,2 -2.6914068,2 H 5.47341 Z m 85.029297,0.0371 c 0.03126,-3e-5 0.06252,6.3e-4 0.09375,0.002 1.096219,0.0373 1.977129,0.91561 2.017578,2.01172 0,1.25 -0.870469,2 -2.480469,2 h -4.199219 v -4 h 4.359375 c 0.06939,-0.008 0.139138,-0.0126 0.208985,-0.0137 z"
           id="polygon8"
           inkscape:connector-curvature="0"
           sodipodi:nodetypes="ccccccccccccccccccccccccccccccccccccccccccccccccccccccccccccccccccccccccccccccccccccccccscccsscsccscccccccccccccssssscccccccccccccccccccccccccccscccccccccccsscccccsccccccccssccccsscccccccscccscccscssscsscccccccccccccccccccccccccccccscccccccccssssccccsccscccccssssccsccccsssssssccccccccssccccssccccccccssssccccsscssscccssssccccsscssssscccsscccscccssssccccccccssccccssccccccccssscccccsccccc" />
      </g>
    </g>
    <g
       id="g64"
       style="fill:#000000">
      <g
         id="g60"
         style="fill:#000000">
        <g
           id="g42"
           style="fill:#000000" />
      </g>
    </g>
    <g
       id="g88"
       style="fill:#000000">
      <g
         id="g74"
         style="fill:#000000" />
    </g>
  </g>
</svg>
